<svg xmlns="http://www.w3.org/2000/svg" viewBox="0 0 128 128">
  <defs>
    <linearGradient id="bg" x1="0" y1="0" x2="1" y2="1">
      <stop offset="0%" stop-color="#1971c2"/>
      <stop offset="100%" stop-color="#0c4a85"/>
    </linearGradient>
  </defs>
  <rect width="128" height="128" rx="22" ry="22" fill="url(#bg)"/>
  <!-- Колокольчик -->
  <path d="M64 28c-3 0-5 2-5 5v3c-12 2-21 12-21 25v15l-6 8c-1 2 0 4 2 4h60c2 0 3-2 2-4l-6-8V61c0-13-9-23-21-25v-3c0-3-2-5-5-5z" fill="#fff"/>
  <path d="M56 92c0 4 4 8 8 8s8-4 8-8H56z" fill="#fff"/>
  <!-- Знак рубля -->
  <text x="64" y="76" font-family="Arial, sans-serif" font-size="34" font-weight="900" fill="#1971c2" text-anchor="middle">₽</text>
</svg>
